<svg xmlns="http://www.w3.org/2000/svg" width="170" height="188"><defs><filter id="8y4qdvygxa" width="185.4%" height="178%" x="-42.7%" y="-39%" filterUnits="objectBoundingBox"><feGaussianBlur in="SourceGraphic" stdDeviation="13"/></filter></defs><g fill="none" fill-rule="evenodd"><path fill="#10CF2D" d="M156.087 46.503c-2.333-6.999-6.102-12.742-12.742-16.51-15.075-8.794-30.15-17.408-45.225-26.202C93.992 1.458 89.685.2 85.02.022c-5.205-.18-10.05.718-14.537 3.41-15.255 8.794-30.51 17.408-45.584 26.381-8.974 5.384-13.82 13.46-13.82 24.048-.179 17.409 0 34.996 0 52.404 0 2.692.36 5.384 1.257 7.897 2.333 6.82 6.281 12.38 12.563 15.97 14.895 8.616 29.97 17.23 44.866 25.845 3.948 2.333 8.076 3.59 12.562 3.948 5.564.359 10.768-.538 15.614-3.41 15.075-8.794 30.15-17.587 45.225-26.202 4.307-2.333 7.537-5.742 9.87-9.87 2.333-3.948 4.128-8.257 4.128-12.922v-53.66c0-2.512-.359-5.025-1.077-7.358" opacity=".1"/><path fill="#10CF2D" d="M101.459 84.225l-34.926 33.799c-.563.563-1.315.75-1.878.75-.75 0-1.313-.187-1.878-.75L46.066 102.25a2.906 2.906 0 01-.187-3.944 2.903 2.903 0 013.942-.187l14.647 13.895 33.047-31.921c1.126-1.126 2.816-1.126 3.944 0 1.126 1.314 1.126 3.003 0 4.13m17.22-6.16c-1.458-4.374-3.813-7.963-7.963-10.319-9.422-5.496-18.844-10.88-28.266-16.376-2.58-1.458-5.272-2.243-8.188-2.355-3.253-.112-6.281.448-9.085 2.13-9.534 5.497-19.069 10.881-28.49 16.49-5.609 3.364-8.637 8.412-8.637 15.03-.112 10.88 0 21.872 0 32.752 0 1.682.224 3.365.785 4.935 1.458 4.262 3.926 7.738 7.852 9.982 9.31 5.385 18.731 10.769 28.04 16.153 2.469 1.458 5.048 2.243 7.853 2.467 3.477.224 6.73-.336 9.758-2.131 9.422-5.496 18.844-10.992 28.266-16.376 2.692-1.458 4.71-3.59 6.169-6.17 1.458-2.467 2.58-5.16 2.58-8.075V82.663c0-1.57-.225-3.14-.673-4.598" filter="url(#8y4qdvygxa)" opacity=".5" transform="translate(11)"/><path fill="#FFF" d="M116.521 54.927c-1.037-3.15-2.713-5.734-5.666-7.43-6.704-3.958-13.408-7.834-20.112-11.791-1.836-1.05-3.751-1.615-5.826-1.696-2.315-.08-4.47.323-6.465 1.534-6.784 3.958-13.567 7.834-20.271 11.872-3.99 2.423-6.146 6.057-6.146 10.822-.08 7.833 0 15.748 0 23.581 0 1.212.16 2.423.56 3.554 1.037 3.069 2.792 5.571 5.586 7.186 6.624 3.878 13.328 7.754 19.952 11.63a12.627 12.627 0 005.587 1.777c2.474.162 4.788-.242 6.943-1.534 6.704-3.957 13.408-7.915 20.112-11.791 1.915-1.05 3.352-2.584 4.39-4.442 1.037-1.776 1.835-3.715 1.835-5.814V58.238c0-1.131-.16-2.262-.479-3.311"/><path fill="#10CF2D" d="M112.459 65.225L77.533 99.024c-.563.563-1.315.75-1.878.75-.75 0-1.313-.187-1.878-.75L57.066 83.25a2.906 2.906 0 01-.187-3.944 2.903 2.903 0 013.942-.187l14.647 13.895 33.047-31.921c1.126-1.126 2.816-1.126 3.944 0 1.126 1.314 1.126 3.003 0 4.13m17.22-6.16c-1.458-4.374-3.813-7.963-7.963-10.319-9.422-5.496-18.844-10.88-28.266-16.376-2.58-1.458-5.272-2.243-8.188-2.355-3.253-.112-6.281.448-9.085 2.13-9.534 5.497-19.069 10.881-28.49 16.49-5.609 3.364-8.637 8.412-8.637 15.03-.112 10.88 0 21.872 0 32.752 0 1.682.224 3.365.785 4.935 1.458 4.262 3.926 7.738 7.852 9.982 9.31 5.385 18.731 10.769 28.04 16.153 2.469 1.458 5.048 2.243 7.853 2.467 3.477.224 6.73-.336 9.758-2.131 9.422-5.496 18.844-10.992 28.266-16.376 2.692-1.458 4.71-3.59 6.169-6.17 1.458-2.467 2.58-5.16 2.58-8.075V63.663c0-1.57-.225-3.14-.673-4.598"/></g></svg>