<svg xmlns="http://www.w3.org/2000/svg" xmlns:xlink="http://www.w3.org/1999/xlink" width="122" height="122" viewBox="0 0 122 122">
    <defs>
        <filter id="prefix__b" width="186.2%" height="186.2%" x="-43.1%" y="-35.6%" filterUnits="objectBoundingBox">
            <feOffset dy="6" in="SourceAlpha" result="shadowOffsetOuter1"/>
            <feGaussianBlur in="shadowOffsetOuter1" result="shadowBlurOuter1" stdDeviation="10.5"/>
            <feColorMatrix in="shadowBlurOuter1" values="0 0 0 0 0.794412364 0 0 0 0 0.455894001 0 0 0 0 0.546165564 0 0 0 0.449027535 0"/>
        </filter>
        <circle id="prefix__a" cx="40" cy="40" r="40"/>
    </defs>
    <g fill="none" fill-rule="evenodd" transform="translate(21 15)">
        <mask id="prefix__c" fill="#fff">
            <use xlink:href="#prefix__a"/>
        </mask>
        <use fill="#000" filter="url(#prefix__b)" xlink:href="#prefix__a"/>
        <use fill="#FFF" xlink:href="#prefix__a"/>
        <path fill="#000" fill-rule="nonzero" d="M30.84 62C23.76 62 18 56.24 18 49.16s5.76-12.84 12.84-12.84h1.31v8.37h-1.31c-2.47 0-4.47 2.01-4.47 4.47 0 2.47 2.01 4.48 4.47 4.48 2.47 0 4.47-2.01 4.47-4.48V31.84c0-7.08 5.76-12.84 12.84-12.84s12.84 5.76 12.84 12.84-5.76 12.84-12.84 12.84h-1.31v-8.37h1.31c2.47 0 4.47-2.01 4.47-4.47 0-2.47-2.01-4.47-4.47-4.47-2.47 0-4.47 2.01-4.47 4.47v17.32c0 7.08-5.76 12.84-12.84 12.84z" mask="url(#prefix__c)"/>
    </g>
</svg>
